<svg id="visual" viewBox="0 0 900 600" width="900" height="600" xmlns="http://www.w3.org/2000/svg" xmlns:xlink="http://www.w3.org/1999/xlink" version="1.1"><rect x="0" y="0" width="900" height="600" fill="#210e2d"></rect><path d="M0 201L16.7 221C33.3 241 66.7 281 100 292.2C133.3 303.3 166.7 285.7 200 263C233.3 240.3 266.7 212.7 300 219C333.3 225.3 366.7 265.7 400 275C433.3 284.3 466.7 262.7 500 247C533.3 231.3 566.7 221.7 600 213.3C633.3 205 666.7 198 700 215.2C733.3 232.3 766.7 273.7 800 287C833.3 300.3 866.7 285.7 883.3 278.3L900 271L900 601L883.3 601C866.7 601 833.3 601 800 601C766.7 601 733.3 601 700 601C666.7 601 633.3 601 600 601C566.7 601 533.3 601 500 601C466.7 601 433.3 601 400 601C366.7 601 333.3 601 300 601C266.7 601 233.3 601 200 601C166.7 601 133.3 601 100 601C66.7 601 33.3 601 16.7 601L0 601Z" fill="#380638"></path><path d="M0 314L16.7 313.8C33.3 313.7 66.7 313.3 100 315.5C133.3 317.7 166.7 322.3 200 311.7C233.3 301 266.7 275 300 269.2C333.3 263.3 366.7 277.7 400 300.5C433.3 323.3 466.7 354.7 500 347.5C533.3 340.3 566.7 294.7 600 275.5C633.3 256.3 666.7 263.7 700 271.8C733.3 280 766.7 289 800 304C833.3 319 866.7 340 883.3 350.5L900 361L900 601L883.3 601C866.7 601 833.3 601 800 601C766.7 601 733.3 601 700 601C666.7 601 633.3 601 600 601C566.7 601 533.3 601 500 601C466.7 601 433.3 601 400 601C366.7 601 333.3 601 300 601C266.7 601 233.3 601 200 601C166.7 601 133.3 601 100 601C66.7 601 33.3 601 16.7 601L0 601Z" fill="#4d0950"></path><path d="M0 386L16.7 385.8C33.3 385.7 66.7 385.3 100 374.7C133.3 364 166.7 343 200 343.2C233.3 343.3 266.7 364.7 300 379.7C333.3 394.7 366.7 403.3 400 397.5C433.3 391.7 466.7 371.3 500 357.3C533.3 343.3 566.7 335.7 600 330.2C633.3 324.7 666.7 321.3 700 323C733.3 324.7 766.7 331.3 800 336.8C833.3 342.3 866.7 346.7 883.3 348.8L900 351L900 601L883.3 601C866.7 601 833.3 601 800 601C766.7 601 733.3 601 700 601C666.7 601 633.3 601 600 601C566.7 601 533.3 601 500 601C466.7 601 433.3 601 400 601C366.7 601 333.3 601 300 601C266.7 601 233.3 601 200 601C166.7 601 133.3 601 100 601C66.7 601 33.3 601 16.7 601L0 601Z" fill="#630e6a"></path><path d="M0 361L16.7 364.8C33.3 368.7 66.7 376.3 100 379.5C133.3 382.7 166.7 381.3 200 386.3C233.3 391.3 266.7 402.7 300 410.8C333.3 419 366.7 424 400 412.5C433.3 401 466.7 373 500 372.7C533.3 372.3 566.7 399.7 600 403.3C633.3 407 666.7 387 700 377.3C733.3 367.7 766.7 368.3 800 365.7C833.3 363 866.7 357 883.3 354L900 351L900 601L883.3 601C866.7 601 833.3 601 800 601C766.7 601 733.3 601 700 601C666.7 601 633.3 601 600 601C566.7 601 533.3 601 500 601C466.7 601 433.3 601 400 601C366.7 601 333.3 601 300 601C266.7 601 233.3 601 200 601C166.7 601 133.3 601 100 601C66.7 601 33.3 601 16.7 601L0 601Z" fill="#791485"></path><path d="M0 426L16.7 426.5C33.3 427 66.7 428 100 427.7C133.3 427.3 166.7 425.7 200 431.3C233.3 437 266.7 450 300 448.3C333.3 446.7 366.7 430.3 400 430.2C433.3 430 466.7 446 500 446.8C533.3 447.7 566.7 433.3 600 424.7C633.3 416 666.7 413 700 418.2C733.3 423.3 766.7 436.7 800 443.5C833.3 450.3 866.7 450.7 883.3 450.8L900 451L900 601L883.3 601C866.7 601 833.3 601 800 601C766.7 601 733.3 601 700 601C666.7 601 633.3 601 600 601C566.7 601 533.3 601 500 601C466.7 601 433.3 601 400 601C366.7 601 333.3 601 300 601C266.7 601 233.3 601 200 601C166.7 601 133.3 601 100 601C66.7 601 33.3 601 16.7 601L0 601Z" fill="#8f1ba2"></path><path d="M0 454L16.7 464.7C33.3 475.3 66.7 496.7 100 507C133.3 517.3 166.7 516.7 200 511.7C233.3 506.7 266.7 497.3 300 498C333.3 498.7 366.7 509.3 400 510.7C433.3 512 466.7 504 500 504.3C533.3 504.7 566.7 513.3 600 508.8C633.3 504.3 666.7 486.7 700 482.8C733.3 479 766.7 489 800 494.7C833.3 500.3 866.7 501.7 883.3 502.3L900 503L900 601L883.3 601C866.7 601 833.3 601 800 601C766.7 601 733.3 601 700 601C666.7 601 633.3 601 600 601C566.7 601 533.3 601 500 601C466.7 601 433.3 601 400 601C366.7 601 333.3 601 300 601C266.7 601 233.3 601 200 601C166.7 601 133.3 601 100 601C66.7 601 33.3 601 16.7 601L0 601Z" fill="#a524c0"></path><path d="M0 533L16.7 531C33.3 529 66.7 525 100 526.8C133.3 528.7 166.7 536.3 200 541.8C233.3 547.3 266.7 550.7 300 549.3C333.3 548 366.7 542 400 541.2C433.3 540.3 466.7 544.7 500 539.7C533.3 534.7 566.7 520.3 600 519.2C633.3 518 666.7 530 700 533.2C733.3 536.3 766.7 530.7 800 532.8C833.3 535 866.7 545 883.3 550L900 555L900 601L883.3 601C866.7 601 833.3 601 800 601C766.7 601 733.3 601 700 601C666.7 601 633.3 601 600 601C566.7 601 533.3 601 500 601C466.7 601 433.3 601 400 601C366.7 601 333.3 601 300 601C266.7 601 233.3 601 200 601C166.7 601 133.3 601 100 601C66.7 601 33.3 601 16.7 601L0 601Z" fill="#ba2de0"></path></svg>